<svg xmlns="http://www.w3.org/2000/svg" viewBox="-9780.65 488.934 157.199 157.199">
  <defs>
    <style>
      .cls-1 {
        fill: #f0524b;
      }

      .cls-2 {
        fill: #fff;
      }
    </style>
  </defs>
  <g id="Group_7" data-name="Group 7" transform="translate(-9780.65 488.934)">
    <ellipse id="Ellipse_6" data-name="Ellipse 6" class="cls-1" cx="78.599" cy="78.599" rx="78.599" ry="78.599"/>
    <g id="Group_6" data-name="Group 6" transform="translate(33.734 40.525)">
      <path id="Path_7" data-name="Path 7" class="cls-2" d="M165.433,97.723h3.93v3.93A1.645,1.645,0,0,0,171,103.286h9.493a1.645,1.645,0,0,0,1.633-1.633v-3.93h3.93a1.645,1.645,0,0,0,1.633-1.633V86.6a1.645,1.645,0,0,0-1.633-1.633h-3.93v-3.93A1.645,1.645,0,0,0,180.49,79.4H171a1.645,1.645,0,0,0-1.633,1.633v3.93h-3.93A1.645,1.645,0,0,0,163.8,86.6V96.09A1.612,1.612,0,0,0,165.433,97.723Zm.561-10.514h3.93a1.645,1.645,0,0,0,1.633-1.633v-3.93h8.319v3.93a1.645,1.645,0,0,0,1.633,1.633h3.93v8.319h-3.93a1.645,1.645,0,0,0-1.633,1.633v3.93h-8.319v-3.93a1.645,1.645,0,0,0-1.633-1.633h-3.93Z" transform="translate(-113.933 -79.4)"/>
      <path id="Path_8" data-name="Path 8" class="cls-2" d="M154.7,133.026a1.133,1.133,0,0,0-1.123,1.123V149.46h-4.849v-4.645a1.914,1.914,0,0,0-1.429-1.837v-5.971a4.1,4.1,0,0,0-3.93-4.083L106.01,131.6l-7.758-2.858a7.707,7.707,0,0,0-9.034,2.858l-4.083,5.869-14.852-5.155a1.936,1.936,0,0,0-2.45,1.174L66.2,138.13a1.863,1.863,0,0,0,.1,1.48,1.779,1.779,0,0,0,1.123.97l25.366,8.881H66.3v2.195h87.327v10.514H66.353v2.195h87.276v6.38a1.123,1.123,0,1,0,2.246,0V134.1A1.21,1.21,0,0,0,154.7,133.026Zm-24.039,1.684,2.093,2.705-4.185,5.461h-4.44l6.329-8.217Zm2.858.1,1.225.051-.612.766Zm.664,4.44,2.807,3.675h-5.614Zm5.563,3.675-4.185-5.461,1.225-1.582,5.41,7.043Zm5.359-5.92v5.92h-.153l-6.074-7.911,4.44.153A1.787,1.787,0,0,1,145.105,137.007Zm-54.05-4.185a5.546,5.546,0,0,1,6.431-2.042l6.839,2.5-2.042,4.951a1.071,1.071,0,0,0,.612,1.429,1.577,1.577,0,0,0,.408.1,1.065,1.065,0,0,0,1.021-.663l2.195-5.308,21.181.766-6.38,8.37h-20.16l-13.576-5.1Zm19.8,16.69-12.4-.357L68.394,138.64l1.429-4.134,30.521,10.514c.1.051.255.051.357.1h45.833v4.389Z" transform="translate(-66.095 -103.322)"/>
      <path id="Path_9" data-name="Path 9" class="cls-2" d="M85.335,122.77a6.635,6.635,0,1,0-6.635-6.635A6.622,6.622,0,0,0,85.335,122.77Zm0-11.075a4.44,4.44,0,1,1-4.44,4.44A4.444,4.444,0,0,1,85.335,111.695Z" transform="translate(-72.267 -94.137)"/>
    </g>
  </g>
</svg>
