<svg xmlns="http://www.w3.org/2000/svg" viewBox="-7644 488.934 157.199 157.199">
  <defs>
    <style>
      .cls-1 {
        fill: #f0524b;
      }

      .cls-2 {
        fill: #fff;
      }
    </style>
  </defs>
  <g id="Group_550" data-name="Group 550" transform="translate(-8652)">
    <g id="Group_203" data-name="Group 203" transform="translate(-8)">
      <g id="Group_7" data-name="Group 7" transform="translate(1016 488.934)">
        <path id="Path_3001" data-name="Path 3001" class="cls-1" d="M78.6,0A78.6,78.6,0,1,1,0,78.6,78.6,78.6,0,0,1,78.6,0Z"/>
      </g>
    </g>
    <path id="Path_3002" data-name="Path 3002" class="cls-2" d="M165.433,97.723h3.93v3.93A1.645,1.645,0,0,0,171,103.286h9.493a1.645,1.645,0,0,0,1.633-1.633v-3.93h3.93a1.645,1.645,0,0,0,1.633-1.633V86.6a1.645,1.645,0,0,0-1.633-1.633h-3.93v-3.93A1.645,1.645,0,0,0,180.49,79.4H171a1.645,1.645,0,0,0-1.633,1.633v3.93h-3.93A1.645,1.645,0,0,0,163.8,86.6V96.09A1.612,1.612,0,0,0,165.433,97.723Zm.561-10.514h3.93a1.645,1.645,0,0,0,1.633-1.633v-3.93h8.319v3.93a1.645,1.645,0,0,0,1.633,1.633h3.93v8.319h-3.93a1.645,1.645,0,0,0-1.633,1.633v3.93h-8.319v-3.93a1.645,1.645,0,0,0-1.633-1.633h-3.93Z" transform="translate(909.801 477.058)"/>
    <g id="ipad" transform="translate(1044.5 523.681)">
      <g id="Group_246" data-name="Group 246" transform="translate(8)">
        <path id="Path_2990" data-name="Path 2990" class="cls-2" d="M16.477,18.864a1.473,1.473,0,0,0,1.044-.433l5.909-5.909a1.477,1.477,0,1,0-2.089-2.089l-5.909,5.909a1.477,1.477,0,0,0,1.044,2.522Z" transform="translate(-4.659 4.773)"/>
        <path id="Path_2991" data-name="Path 2991" class="cls-2" d="M16.477,22.909a1.473,1.473,0,0,0,1.044-.433l2.955-2.955a1.477,1.477,0,0,0-2.089-2.089l-2.955,2.955a1.477,1.477,0,0,0,1.044,2.522Z" transform="translate(-4.659 8.114)"/>
        <path id="Path_2992" data-name="Path 2992" class="cls-2" d="M19.428,15.422A1.547,1.547,0,0,0,19,16.471a1.519,1.519,0,0,0,.428,1.049,1.485,1.485,0,0,0,1.049.428,1.553,1.553,0,0,0,1.049-.428,1.526,1.526,0,0,0,.428-1.049,1.477,1.477,0,0,0-2.526-1.049Z" transform="translate(-2.75 7.165)"/>
        <path id="Path_2993" data-name="Path 2993" class="cls-2" d="M21.433,16.954a1.477,1.477,0,0,0,2.089,0l4.432-4.432a1.477,1.477,0,1,0-2.089-2.089l-4.432,4.432A1.476,1.476,0,0,0,21.433,16.954Z" transform="translate(-1.795 4.773)"/>
        <path id="Path_2997" data-name="Path 2997" class="cls-2" d="M31.955,3H30.477a1.477,1.477,0,0,0,0,2.955h1.477a1.477,1.477,0,0,0,0-2.955Z" transform="translate(2.023 1.432)"/>
        <path id="Path_2998" data-name="Path 2998" class="cls-2" d="M67.242,0H13.758A5.813,5.813,0,0,0,8,5.852V82.785a5.813,5.813,0,0,0,5.758,5.853H67.241A5.813,5.813,0,0,0,73,82.786V5.852A5.813,5.813,0,0,0,67.242,0Zm2.8,82.786a2.856,2.856,0,0,1-2.8,2.9H13.758a2.856,2.856,0,0,1-2.8-2.9V5.852a2.856,2.856,0,0,1,2.8-2.9H67.241a2.856,2.856,0,0,1,2.805,2.9Z" transform="translate(-8)"/>
        <path id="Path_2999" data-name="Path 2999" class="cls-2" d="M67.137,6H11V71H67.137ZM64.183,68.046H13.955V8.955H64.183Z" transform="translate(-6.568 2.864)"/>
        <path id="Path_3000" data-name="Path 3000" class="cls-2" d="M37.818,55.909a5.909,5.909,0,1,0-5.909,5.909A5.915,5.915,0,0,0,37.818,55.909Zm-5.909,2.955a2.955,2.955,0,1,1,2.955-2.955A2.958,2.958,0,0,1,31.909,58.864Z" transform="translate(0.591 23.865)"/>
      </g>
    </g>
  </g>
</svg>
