<svg xmlns="http://www.w3.org/2000/svg" viewBox="-10026.968 489.308 152.723 152.723">
  <defs>
    <style>
      .cls-1 {
        fill: #f0524b;
      }

      .cls-2 {
        fill: #fff;
      }
    </style>
  </defs>
  <g id="Group_10" data-name="Group 10" transform="translate(-10026.968 489.308)">
    <ellipse id="Ellipse_7" data-name="Ellipse 7" class="cls-1" cx="76.361" cy="76.361" rx="76.361" ry="76.361"/>
    <g id="Group_9" data-name="Group 9" transform="translate(38.302 35.305)">
      <g id="Group_8" data-name="Group 8">
        <path id="Path_10" data-name="Path 10" class="cls-2" d="M153.336,97.331A10.363,10.363,0,1,0,141.684,107.6v26.875a16.252,16.252,0,0,1-16.214,16.214H114.56a16.252,16.252,0,0,1-16.214-16.214V119.149h4.611c5.752,0,9.124-5.851,10.016-9.818.149-.793,3.322-19.933,3.818-26.578a8.993,8.993,0,0,0-2.479-6.843,10.358,10.358,0,0,0-7.537-3.273h-1.835A1.455,1.455,0,0,0,103.5,71.3h-2.628a1.439,1.439,0,0,0-1.438,1.438v2.331a1.439,1.439,0,0,0,1.438,1.438H103.5a1.455,1.455,0,0,0,1.438-1.339h1.835a7.658,7.658,0,0,1,5.653,2.479,6.393,6.393,0,0,1,1.785,4.909c-.446,6.545-3.768,26.131-3.768,26.231-.645,2.975-3.273,7.735-7.487,7.735H91.107c-4.215,0-6.843-4.76-7.487-7.686-.05-.2-3.322-19.785-3.768-26.33A6.394,6.394,0,0,1,81.636,77.6a7.658,7.658,0,0,1,5.653-2.479h1.835a1.455,1.455,0,0,0,1.438,1.339h2.628a1.439,1.439,0,0,0,1.438-1.438v-2.38A1.439,1.439,0,0,0,93.189,71.2H90.561a1.455,1.455,0,0,0-1.438,1.339H87.289a10.275,10.275,0,0,0-7.537,3.273,8.993,8.993,0,0,0-2.479,6.843c.5,6.644,3.669,25.735,3.818,26.627.843,3.917,4.215,9.768,10.016,9.768h4.611v15.322a18.813,18.813,0,0,0,18.793,18.793H125.42a18.813,18.813,0,0,0,18.793-18.793V107.5a10.214,10.214,0,0,0,9.124-10.165Zm-10.363,7.785a7.76,7.76,0,1,1,7.735-7.785,7.756,7.756,0,0,1-7.735,7.785Zm0-12.2a4.413,4.413,0,1,0,4.413,4.413,4.423,4.423,0,0,0-4.413-4.413Zm0,6.2a1.785,1.785,0,1,1,1.785-1.785,1.778,1.778,0,0,1-1.785,1.785Zm0,0" transform="translate(-77.245 -71.2)"/>
      </g>
    </g>
  </g>
</svg>
